<mxfile host="www.draw.io" modified="2020-01-13T04:09:36.230Z" agent="Mozilla/5.0 (Macintosh; Intel Mac OS X 10_14_6) AppleWebKit/537.36 (KHTML, like Gecko) Chrome/79.0.3945.88 Safari/537.36" etag="ADzqp98RnxdRQzW9kDv2" version="12.5.1" type="github">
  <diagram name="Page-1" id="13e1069c-82ec-6db2-03f1-153e76fe0fe0">
    <mxGraphModel dx="1125" dy="582" grid="1" gridSize="10" guides="1" tooltips="1" connect="1" arrows="1" fold="1" page="1" pageScale="1" pageWidth="1100" pageHeight="850" background="#ffffff" math="0" shadow="0">
      <root>
        <mxCell id="0"/>
        <mxCell id="1" parent="0"/>
        <mxCell id="u1iQbS3z8Yp-li9zfZ41-1" value=":Object" style="shape=umlLifeline;perimeter=lifelinePerimeter;whiteSpace=wrap;html=1;container=1;collapsible=0;recursiveResize=0;outlineConnect=0;rounded=1;shadow=0;comic=0;labelBackgroundColor=none;strokeWidth=1;fontFamily=Verdana;fontSize=12;align=center;" vertex="1" parent="1">
          <mxGeometry x="240" y="80" width="100" height="580" as="geometry"/>
        </mxCell>
        <mxCell id="u1iQbS3z8Yp-li9zfZ41-2" value="" style="html=1;points=[];perimeter=orthogonalPerimeter;rounded=0;shadow=0;comic=0;labelBackgroundColor=none;strokeWidth=1;fontFamily=Verdana;fontSize=12;align=center;" vertex="1" parent="u1iQbS3z8Yp-li9zfZ41-1">
          <mxGeometry x="45" y="100" width="10" height="440" as="geometry"/>
        </mxCell>
        <mxCell id="u1iQbS3z8Yp-li9zfZ41-5" value=":Object" style="shape=umlLifeline;perimeter=lifelinePerimeter;whiteSpace=wrap;html=1;container=1;collapsible=0;recursiveResize=0;outlineConnect=0;rounded=1;shadow=0;comic=0;labelBackgroundColor=none;strokeWidth=1;fontFamily=Verdana;fontSize=12;align=center;" vertex="1" parent="1">
          <mxGeometry x="740" y="80" width="100" height="580" as="geometry"/>
        </mxCell>
        <mxCell id="u1iQbS3z8Yp-li9zfZ41-6" value=":Object" style="shape=umlLifeline;perimeter=lifelinePerimeter;whiteSpace=wrap;html=1;container=1;collapsible=0;recursiveResize=0;outlineConnect=0;rounded=1;shadow=0;comic=0;labelBackgroundColor=none;strokeWidth=1;fontFamily=Verdana;fontSize=12;align=center;" vertex="1" parent="1">
          <mxGeometry x="920" y="80" width="100" height="580" as="geometry"/>
        </mxCell>
        <mxCell id="u1iQbS3z8Yp-li9zfZ41-7" value=":Object" style="shape=umlLifeline;perimeter=lifelinePerimeter;whiteSpace=wrap;html=1;container=1;collapsible=0;recursiveResize=0;outlineConnect=0;rounded=1;shadow=0;comic=0;labelBackgroundColor=none;strokeWidth=1;fontFamily=Verdana;fontSize=12;align=center;" vertex="1" parent="1">
          <mxGeometry x="100" y="80" width="100" height="580" as="geometry"/>
        </mxCell>
        <mxCell id="u1iQbS3z8Yp-li9zfZ41-8" value="" style="html=1;points=[];perimeter=orthogonalPerimeter;rounded=0;shadow=0;comic=0;labelBackgroundColor=none;strokeWidth=1;fontFamily=Verdana;fontSize=12;align=center;" vertex="1" parent="u1iQbS3z8Yp-li9zfZ41-7">
          <mxGeometry x="45" y="100" width="10" height="440" as="geometry"/>
        </mxCell>
        <mxCell id="u1iQbS3z8Yp-li9zfZ41-9" value="" style="html=1;points=[];perimeter=orthogonalPerimeter;rounded=0;shadow=0;comic=0;labelBackgroundColor=none;strokeWidth=1;fontFamily=Verdana;fontSize=12;align=center;" vertex="1" parent="1">
          <mxGeometry x="785" y="220" width="10" height="400" as="geometry"/>
        </mxCell>
        <mxCell id="u1iQbS3z8Yp-li9zfZ41-10" value="" style="html=1;points=[];perimeter=orthogonalPerimeter;rounded=0;shadow=0;comic=0;labelBackgroundColor=none;strokeWidth=1;fontFamily=Verdana;fontSize=12;align=center;" vertex="1" parent="1">
          <mxGeometry x="965" y="230" width="10" height="390" as="geometry"/>
        </mxCell>
        <mxCell id="u1iQbS3z8Yp-li9zfZ41-12" value="1.add workload&lt;br&gt;log volume" style="html=1;verticalAlign=bottom;endArrow=block;entryX=0;entryY=0;labelBackgroundColor=none;fontFamily=Verdana;fontSize=12;edgeStyle=elbowEdgeStyle;elbow=vertical;" edge="1" parent="1" source="u1iQbS3z8Yp-li9zfZ41-8" target="u1iQbS3z8Yp-li9zfZ41-2">
          <mxGeometry relative="1" as="geometry">
            <mxPoint x="220" y="190" as="sourcePoint"/>
          </mxGeometry>
        </mxCell>
        <mxCell id="u1iQbS3z8Yp-li9zfZ41-13" value="2.deploy workload" style="html=1;verticalAlign=bottom;endArrow=block;labelBackgroundColor=none;fontFamily=Verdana;fontSize=12;edgeStyle=elbowEdgeStyle;elbow=vertical;entryX=-0.148;entryY=0.031;entryDx=0;entryDy=0;entryPerimeter=0;" edge="1" parent="1" source="u1iQbS3z8Yp-li9zfZ41-2" target="u1iQbS3z8Yp-li9zfZ41-36">
          <mxGeometry relative="1" as="geometry">
            <mxPoint x="370" y="200" as="sourcePoint"/>
            <mxPoint x="980" y="200" as="targetPoint"/>
            <Array as="points">
              <mxPoint x="410" y="194"/>
              <mxPoint x="950" y="200"/>
              <mxPoint x="320" y="190"/>
            </Array>
          </mxGeometry>
        </mxCell>
        <mxCell id="u1iQbS3z8Yp-li9zfZ41-14" value="User" style="shape=note;whiteSpace=wrap;html=1;size=14;verticalAlign=top;align=left;spacingTop=-6;rounded=0;shadow=0;comic=0;labelBackgroundColor=none;strokeWidth=1;fontFamily=Verdana;fontSize=12" vertex="1" parent="1">
          <mxGeometry x="100" y="30" width="100" height="35" as="geometry"/>
        </mxCell>
        <mxCell id="u1iQbS3z8Yp-li9zfZ41-15" value="WORKLOAD CTRL" style="shape=note;whiteSpace=wrap;html=1;size=14;verticalAlign=top;align=left;spacingTop=-6;rounded=0;shadow=0;comic=0;labelBackgroundColor=none;strokeWidth=1;fontFamily=Verdana;fontSize=12" vertex="1" parent="1">
          <mxGeometry x="240" y="30" width="100" height="35" as="geometry"/>
        </mxCell>
        <mxCell id="u1iQbS3z8Yp-li9zfZ41-17" value="FLUENTD" style="shape=note;whiteSpace=wrap;html=1;size=14;verticalAlign=top;align=left;spacingTop=-6;rounded=0;shadow=0;comic=0;labelBackgroundColor=none;strokeWidth=1;fontFamily=Verdana;fontSize=12" vertex="1" parent="1">
          <mxGeometry x="740" y="30" width="100" height="35" as="geometry"/>
        </mxCell>
        <mxCell id="u1iQbS3z8Yp-li9zfZ41-18" value="CONFIG-RELOADER" style="shape=note;whiteSpace=wrap;html=1;size=14;verticalAlign=top;align=left;spacingTop=-6;rounded=0;shadow=0;comic=0;labelBackgroundColor=none;strokeWidth=1;fontFamily=Verdana;fontSize=12" vertex="1" parent="1">
          <mxGeometry x="920" y="30" width="100" height="35" as="geometry"/>
        </mxCell>
        <mxCell id="u1iQbS3z8Yp-li9zfZ41-26" value="" style="endArrow=classic;html=1;entryX=1.083;entryY=0.286;entryDx=0;entryDy=0;entryPerimeter=0;" edge="1" parent="1" source="u1iQbS3z8Yp-li9zfZ41-10" target="u1iQbS3z8Yp-li9zfZ41-9">
          <mxGeometry width="50" height="50" relative="1" as="geometry">
            <mxPoint x="1010" y="320" as="sourcePoint"/>
            <mxPoint x="594" y="290" as="targetPoint"/>
          </mxGeometry>
        </mxCell>
        <mxCell id="u1iQbS3z8Yp-li9zfZ41-27" value="6.configure reload" style="text;html=1;align=center;verticalAlign=middle;resizable=0;points=[];labelBackgroundColor=#ffffff;" vertex="1" connectable="0" parent="u1iQbS3z8Yp-li9zfZ41-26">
          <mxGeometry x="0.5407" y="1" relative="1" as="geometry">
            <mxPoint x="34" y="9" as="offset"/>
          </mxGeometry>
        </mxCell>
        <mxCell id="u1iQbS3z8Yp-li9zfZ41-30" value=":Object" style="shape=umlLifeline;perimeter=lifelinePerimeter;whiteSpace=wrap;html=1;container=1;collapsible=0;recursiveResize=0;outlineConnect=0;rounded=1;shadow=0;comic=0;labelBackgroundColor=none;strokeWidth=1;fontFamily=Verdana;fontSize=12;align=center;" vertex="1" parent="1">
          <mxGeometry x="550" y="80" width="100" height="580" as="geometry"/>
        </mxCell>
        <mxCell id="u1iQbS3z8Yp-li9zfZ41-31" value="" style="html=1;points=[];perimeter=orthogonalPerimeter;rounded=0;shadow=0;comic=0;labelBackgroundColor=none;strokeWidth=1;fontFamily=Verdana;fontSize=12;align=center;" vertex="1" parent="1">
          <mxGeometry x="595" y="210" width="10" height="410" as="geometry"/>
        </mxCell>
        <mxCell id="u1iQbS3z8Yp-li9zfZ41-32" value="LOG-AGGREGATOR" style="shape=note;whiteSpace=wrap;html=1;size=14;verticalAlign=top;align=left;spacingTop=-6;rounded=0;shadow=0;comic=0;labelBackgroundColor=none;strokeWidth=1;fontFamily=Verdana;fontSize=12" vertex="1" parent="1">
          <mxGeometry x="550" y="30" width="100" height="35" as="geometry"/>
        </mxCell>
        <mxCell id="u1iQbS3z8Yp-li9zfZ41-35" value=":Object" style="shape=umlLifeline;perimeter=lifelinePerimeter;whiteSpace=wrap;html=1;container=1;collapsible=0;recursiveResize=0;outlineConnect=0;rounded=1;shadow=0;comic=0;labelBackgroundColor=none;strokeWidth=1;fontFamily=Verdana;fontSize=12;align=center;" vertex="1" parent="1">
          <mxGeometry x="400" y="80" width="100" height="580" as="geometry"/>
        </mxCell>
        <mxCell id="u1iQbS3z8Yp-li9zfZ41-36" value="" style="html=1;points=[];perimeter=orthogonalPerimeter;rounded=0;shadow=0;comic=0;labelBackgroundColor=none;strokeWidth=1;fontFamily=Verdana;fontSize=12;align=center;" vertex="1" parent="1">
          <mxGeometry x="445" y="180" width="10" height="440" as="geometry"/>
        </mxCell>
        <mxCell id="u1iQbS3z8Yp-li9zfZ41-37" value="KUBELET" style="shape=note;whiteSpace=wrap;html=1;size=14;verticalAlign=top;align=left;spacingTop=-6;rounded=0;shadow=0;comic=0;labelBackgroundColor=none;strokeWidth=1;fontFamily=Verdana;fontSize=12" vertex="1" parent="1">
          <mxGeometry x="400" y="30" width="100" height="35" as="geometry"/>
        </mxCell>
        <mxCell id="u1iQbS3z8Yp-li9zfZ41-38" value="" style="endArrow=classic;html=1;exitX=0.833;exitY=0.11;exitDx=0;exitDy=0;exitPerimeter=0;" edge="1" parent="1" source="u1iQbS3z8Yp-li9zfZ41-36" target="u1iQbS3z8Yp-li9zfZ41-31">
          <mxGeometry width="50" height="50" relative="1" as="geometry">
            <mxPoint x="1010" y="240" as="sourcePoint"/>
            <mxPoint x="900" y="260" as="targetPoint"/>
          </mxGeometry>
        </mxCell>
        <mxCell id="u1iQbS3z8Yp-li9zfZ41-39" value="3.call flexvolume driver" style="text;html=1;align=center;verticalAlign=middle;resizable=0;points=[];labelBackgroundColor=#ffffff;" vertex="1" connectable="0" parent="u1iQbS3z8Yp-li9zfZ41-38">
          <mxGeometry x="0.3911" y="-1" relative="1" as="geometry">
            <mxPoint x="-23.33" y="8.84" as="offset"/>
          </mxGeometry>
        </mxCell>
        <mxCell id="u1iQbS3z8Yp-li9zfZ41-40" value="" style="endArrow=classic;html=1;entryX=0;entryY=0.046;entryDx=0;entryDy=0;entryPerimeter=0;exitX=0.917;exitY=0.067;exitDx=0;exitDy=0;exitPerimeter=0;" edge="1" parent="1" source="u1iQbS3z8Yp-li9zfZ41-31" target="u1iQbS3z8Yp-li9zfZ41-9">
          <mxGeometry width="50" height="50" relative="1" as="geometry">
            <mxPoint x="770" y="238" as="sourcePoint"/>
            <mxPoint x="725" y="240.15999999999997" as="targetPoint"/>
          </mxGeometry>
        </mxCell>
        <mxCell id="u1iQbS3z8Yp-li9zfZ41-41" value="4.mount log volume to dir&lt;br&gt;under fluentd collected path" style="text;html=1;align=center;verticalAlign=middle;resizable=0;points=[];labelBackgroundColor=#ffffff;" vertex="1" connectable="0" parent="u1iQbS3z8Yp-li9zfZ41-40">
          <mxGeometry x="0.3911" y="-1" relative="1" as="geometry">
            <mxPoint x="-57.5" y="20.88" as="offset"/>
          </mxGeometry>
        </mxCell>
        <mxCell id="u1iQbS3z8Yp-li9zfZ41-19" value="5.generate configure&lt;br&gt;when add custom log volume format" style="html=1;verticalAlign=bottom;endArrow=block;labelBackgroundColor=none;fontFamily=Verdana;fontSize=12;edgeStyle=elbowEdgeStyle;elbow=vertical;entryX=-0.25;entryY=0.187;entryDx=0;entryDy=0;entryPerimeter=0;" edge="1" parent="1" target="u1iQbS3z8Yp-li9zfZ41-10">
          <mxGeometry x="0.0811" y="-17" relative="1" as="geometry">
            <mxPoint x="700" y="303" as="sourcePoint"/>
            <mxPoint x="900" y="302" as="targetPoint"/>
            <Array as="points">
              <mxPoint x="600" y="303"/>
              <mxPoint x="400" y="260"/>
            </Array>
            <mxPoint as="offset"/>
          </mxGeometry>
        </mxCell>
      </root>
    </mxGraphModel>
  </diagram>
</mxfile>
